<svg xmlns="http://www.w3.org/2000/svg" xmlns:xlink="http://www.w3.org/1999/xlink" contentStyleType="text/css" height="656px" preserveAspectRatio="none" style="width:990px;height:656px;background:none;" version="1.1" viewBox="0 0 990 656" width="990px" zoomAndPan="magnify"><defs/><g><!--cluster Client-Seite--><g id="cluster_Client-Seite"><path d="M333.5,112.3 L425.5,112.3 A3.75,3.75 0 0 1 428,114.8 L435,134.5969 L714.5,134.5969 A2.5,2.5 0 0 1 717,137.0969 L717,313.39 A2.5,2.5 0 0 1 714.5,315.89 L333.5,315.89 A2.5,2.5 0 0 1 331,313.39 L331,114.8 A2.5,2.5 0 0 1 333.5,112.3 " fill="none" style="stroke:#000000;stroke-width:2.0;"/><line style="stroke:#000000;stroke-width:2.0;" x1="331" x2="435" y1="134.5969" y2="134.5969"/><text fill="#000000" font-family="Source Sans Pro" font-size="14" font-weight="600" lengthAdjust="spacing" textLength="91" x="335" y="127.2951">Client-Seite</text></g><!--cluster Server-Seite--><g id="cluster_Server-Seite"><path d="M13.5,339.89 L113.5,339.89 A3.75,3.75 0 0 1 116,342.39 L123,362.1869 L766.5,362.1869 A2.5,2.5 0 0 1 769,364.6869 L769,647.28 A2.5,2.5 0 0 1 766.5,649.78 L13.5,649.78 A2.5,2.5 0 0 1 11,647.28 L11,342.39 A2.5,2.5 0 0 1 13.5,339.89 " fill="none" style="stroke:#000000;stroke-width:2.0;"/><line style="stroke:#000000;stroke-width:2.0;" x1="11" x2="123" y1="362.1869" y2="362.1869"/><text fill="#000000" font-family="Source sans Pro" font-size="14" font-weight="600" lengthAdjust="spacing" textLength="99" x="15" y="354.8851">Server-Seite</text></g><!--cluster Discord-Integration--><g id="cluster_Discord-Integration"><path d="M795.5,446.19 L948.5,446.19 A3.75,3.75 0 0 1 951,448.69 L958,468.4869 L980.5,468.4869 A2.5,2.5 0 0 1 983,470.9869 L983,540.98 A2.5,2.5 0 0 1 980.5,543.48 L795.5,543.48 A2.5,2.5 0 0 1 793,540.98 L793,448.69 A2.5,2.5 0 0 1 795.5,446.19 " fill="none" style="stroke:#000000;stroke-width:2.0;"/><line style="stroke:#000000;stroke-width:2.0;" x1="793" x2="958" y1="468.4869" y2="468.4869"/><text fill="#000000" font-family="Source sans Pro" font-size="14" font-weight="600" lengthAdjust="spacing" textLength="152" x="797" y="461.1851">Discord-Integration</text></g><!--entity Frontend (Angular)--><g id="elem_Frontend (Angular)"><rect fill="none" height="46.2969" rx="2.5" ry="2.5" style="stroke:#000000;stroke-width:2.0;" width="169" x="346.5" y="147.3"/><rect fill="none" height="10" style="stroke:#000000;stroke-width:2.0;" width="15" x="495.5" y="152.3"/><rect fill="none" height="2" style="stroke:#000000;stroke-width:2.0;" width="4" x="493.5" y="154.3"/><rect fill="none" height="2" style="stroke:#000000;stroke-width:2.0;" width="4" x="493.5" y="158.3"/><text fill="#000000" font-family="Source sans Pro" font-size="14" lengthAdjust="spacing" textLength="129" x="361.5" y="180.2951">Frontend (Angular)</text></g><!--entity Web-Oberfl?che--><g id="elem_Web-Oberfl&#228;che"><rect fill="none" height="46.2969" rx="2.5" ry="2.5" style="stroke:#000000;stroke-width:2.0;" width="151" x="550.5" y="147.3"/><rect fill="none" height="10" style="stroke:#000000;stroke-width:2.0;" width="15" x="681.5" y="152.3"/><rect fill="none" height="2" style="stroke:#000000;stroke-width:2.0;" width="4" x="679.5" y="154.3"/><rect fill="none" height="2" style="stroke:#000000;stroke-width:2.0;" width="4" x="679.5" y="158.3"/><text fill="#000000" font-family="Source sans Pro" font-size="14" lengthAdjust="spacing" textLength="111" x="565.5" y="180.2951">Web-Oberfl&#228;che</text></g><!--entity API Gateway--><g id="elem_API Gateway"><rect fill="none" height="46.2969" rx="2.5" ry="2.5" style="stroke:#000000;stroke-width:2.0;" width="124" x="455" y="253.59"/><rect fill="none" height="10" style="stroke:#000000;stroke-width:2.0;" width="15" x="559" y="258.59"/><rect fill="none" height="2" style="stroke:#000000;stroke-width:2.0;" width="4" x="557" y="260.59"/><rect fill="none" height="2" style="stroke:#000000;stroke-width:2.0;" width="4" x="557" y="264.59"/><text fill="#000000" font-family="Source sans Pro" font-size="14" lengthAdjust="spacing" textLength="84" x="470" y="286.5851">API Gateway</text></g><!--entity Backend (Spring Boot)--><g id="elem_Backend (Spring Boot)"><rect fill="none" height="46.2969" rx="2.5" ry="2.5" style="stroke:#000000;stroke-width:2.0;" width="196" x="419" y="374.89"/><rect fill="none" height="10" style="stroke:#000000;stroke-width:2.0;" width="15" x="595" y="379.89"/><rect fill="none" height="2" style="stroke:#000000;stroke-width:2.0;" width="4" x="593" y="381.89"/><rect fill="none" height="2" style="stroke:#000000;stroke-width:2.0;" width="4" x="593" y="385.89"/><text fill="#000000" font-family="Source sans Pro" font-size="14" lengthAdjust="spacing" textLength="156" x="434" y="407.8851">Backend (Spring Boot)</text></g><!--entity Datenbank (PostgreSQL)--><g id="elem_Datenbank (PostgreSQL)"><rect fill="none" height="46.2969" rx="2.5" ry="2.5" style="stroke:#000000;stroke-width:2.0;" width="211" x="27.5" y="481.19"/><rect fill="none" height="10" style="stroke:#000000;stroke-width:2.0;" width="15" x="218.5" y="486.19"/><rect fill="none" height="2" style="stroke:#000000;stroke-width:2.0;" width="4" x="216.5" y="488.19"/><rect fill="none" height="2" style="stroke:#000000;stroke-width:2.0;" width="4" x="216.5" y="492.19"/><text fill="#000000" font-family="Source sans Pro" font-size="14" lengthAdjust="spacing" textLength="171" x="42.5" y="514.1851">Datenbank (PostgreSQL)</text></g><!--entity Authentifizierungsservice--><g id="elem_Authentifizierungsservice"><rect fill="none" height="46.2969" rx="2.5" ry="2.5" style="stroke:#000000;stroke-width:2.0;" width="214" x="539" y="481.19"/><rect fill="none" height="10" style="stroke:#000000;stroke-width:2.0;" width="15" x="733" y="486.19"/><rect fill="none" height="2" style="stroke:#000000;stroke-width:2.0;" width="4" x="731" y="488.19"/><rect fill="none" height="2" style="stroke:#000000;stroke-width:2.0;" width="4" x="731" y="492.19"/><text fill="#000000" font-family="Source sans Pro" font-size="14" lengthAdjust="spacing" textLength="174" x="554" y="514.1851">Authentifizierungsservice</text></g><!--entity Discord API--><g id="elem_Discord API"><rect fill="none" height="46.2969" rx="2.5" ry="2.5" style="stroke:#000000;stroke-width:2.0;" width="118" x="611" y="587.48"/><rect fill="none" height="10" style="stroke:#000000;stroke-width:2.0;" width="15" x="709" y="592.48"/><rect fill="none" height="2" style="stroke:#000000;stroke-width:2.0;" width="4" x="707" y="594.48"/><rect fill="none" height="2" style="stroke:#000000;stroke-width:2.0;" width="4" x="707" y="598.48"/><text fill="#000000" font-family="Source sans Pro" font-size="14" lengthAdjust="spacing" textLength="78" x="626" y="620.4751">Discord API</text></g><!--entity Plugin Management Service--><g id="elem_Plugin Management Service"><rect fill="none" height="46.2969" rx="2.5" ry="2.5" style="stroke:#000000;stroke-width:2.0;" width="231" x="273.5" y="481.19"/><rect fill="none" height="10" style="stroke:#000000;stroke-width:2.0;" width="15" x="484.5" y="486.19"/><rect fill="none" height="2" style="stroke:#000000;stroke-width:2.0;" width="4" x="482.5" y="488.19"/><rect fill="none" height="2" style="stroke:#000000;stroke-width:2.0;" width="4" x="482.5" y="492.19"/><text fill="#000000" font-family="Source sans Pro" font-size="14" lengthAdjust="spacing" textLength="191" x="288.5" y="514.1851">Plugin Management Service</text></g><!--entity Plugin Datenbank--><g id="elem_Plugin Datenbank"><rect fill="none" height="46.2969" rx="2.5" ry="2.5" style="stroke:#000000;stroke-width:2.0;" width="162" x="308" y="587.48"/><rect fill="none" height="10" style="stroke:#000000;stroke-width:2.0;" width="15" x="450" y="592.48"/><rect fill="none" height="2" style="stroke:#000000;stroke-width:2.0;" width="4" x="448" y="594.48"/><rect fill="none" height="2" style="stroke:#000000;stroke-width:2.0;" width="4" x="448" y="598.48"/><text fill="#000000" font-family="Source sans Pro" font-size="14" lengthAdjust="spacing" textLength="122" x="323" y="620.4751">Plugin Datenbank</text></g><!--entity Discord Bot (JDA)--><g id="elem_Discord Bot (JDA)"><rect fill="none" height="46.2969" rx="2.5" ry="2.5" style="stroke:#000000;stroke-width:2.0;" width="158" x="809" y="481.19"/><rect fill="none" height="10" style="stroke:#000000;stroke-width:2.0;" width="15" x="947" y="486.19"/><rect fill="none" height="2" style="stroke:#000000;stroke-width:2.0;" width="4" x="945" y="488.19"/><rect fill="none" height="2" style="stroke:#000000;stroke-width:2.0;" width="4" x="945" y="492.19"/><text fill="#000000" font-family="Source sans Pro" font-size="14" lengthAdjust="spacing" textLength="118" x="824" y="514.1851">Discord Bot (JDA)</text></g><!--entity Externe Dienste--><g id="elem_Externe Dienste"><path d="M695.5,29 L834.5,29 A3.75,3.75 0 0 1 837,31.5 L844,51.2969 L858.5,51.2969 A2.5,2.5 0 0 1 861,53.7969 L861,65.7969 A2.5,2.5 0 0 1 858.5,68.2969 L695.5,68.2969 A2.5,2.5 0 0 1 693,65.7969 L693,31.5 A2.5,2.5 0 0 1 695.5,29 " fill="none" style="stroke:#000000;stroke-width:2.0;"/><line style="stroke:#000000;stroke-width:2.0;" x1="693" x2="844" y1="51.2969" y2="51.2969"/><text fill="#000000" font-family="Source sans Pro" font-size="14" font-weight="600" lengthAdjust="spacing" textLength="126" x="703" y="44.9951">Externe Dienste</text></g><!--entity Benutzer--><g id="elem_Benutzer"><ellipse cx="626" cy="19" fill="none" rx="8" ry="8" style="stroke:#000000;stroke-width:2.0;"/><path d="M626,27 L626,54 M613,35 L639,35 M626,54 L613,69 M626,54 L639,69 " fill="none" style="stroke:#000000;stroke-width:2.0;"/><text fill="#000000" font-family="Source sans Pro" font-size="14" lengthAdjust="spacing" textLength="64" x="594" y="83.9951">Benutzer</text></g><!--entity Plugin Verwaltung--><g id="elem_Plugin Verwaltung"><rect fill="none" height="46.2969" rx="2.5" ry="2.5" style="stroke:#000000;stroke-width:2.0;" width="163" x="148.5" y="147.3"/><rect fill="none" height="10" style="stroke:#000000;stroke-width:2.0;" width="15" x="291.5" y="152.3"/><rect fill="none" height="2" style="stroke:#000000;stroke-width:2.0;" width="4" x="289.5" y="154.3"/><rect fill="none" height="2" style="stroke:#000000;stroke-width:2.0;" width="4" x="289.5" y="158.3"/><text fill="#000000" font-family="Source sans Pro" font-size="14" lengthAdjust="spacing" textLength="123" x="163.5" y="180.2951">Plugin Verwaltung</text></g><!--link Frontend (Angular) to Web-Oberfl?che--><g id="link_Frontend (Angular)_Web-Oberfl&#228;che"><path d="M515.93,170.44 C527.4,170.44 538.86,170.44 550.33,170.44 " fill="none" id="Frontend (Angular)-Web-Oberfl&#228;che" style="stroke:#000000;stroke-width:2.0;"/></g><!--link Benutzer to Web-Oberfl?che--><g id="link_Benutzer_Web-Oberfl&#228;che"><path d="M626,87.55 C626,107.16 626,124.41 626,141.12 " fill="none" id="Benutzer-to-Web-Oberfl&#228;che" style="stroke:#000000;stroke-width:2.0;"/><polygon fill="#000000" points="626,147.12,630,138.12,626,142.12,622,138.12,626,147.12" style="stroke:#000000;stroke-width:2.0;"/></g><!--link Web-Oberfl?che to API Gateway--><g id="link_Web-Oberfl&#228;che_API Gateway"><path d="M602.35,194.07 C584.07,211.57 563.2153,231.5221 544.9453,249.0021 " fill="none" id="Web-Oberfl&#228;che-to-API Gateway" style="stroke:#000000;stroke-width:2.0;"/><polygon fill="#000000" points="540.61,253.15,549.8783,249.8184,544.2228,249.6934,544.3478,244.038,540.61,253.15" style="stroke:#000000;stroke-width:2.0;"/></g><!--link API Gateway to Backend (Spring Boot)--><g id="link_API Gateway_Backend (Spring Boot)"><path d="M517,300.18 C517,321.51 517,347.4 517,368.7 " fill="none" id="API Gateway-to-Backend (Spring Boot)" style="stroke:#000000;stroke-width:2.0;"/><polygon fill="#000000" points="517,374.7,521,365.7,517,369.7,513,365.7,517,374.7" style="stroke:#000000;stroke-width:2.0;"/></g><!--link Backend (Spring Boot) to Datenbank (PostgreSQL)--><g id="link_Backend (Spring Boot)_Datenbank (PostgreSQL)"><path d="M418.5,405.89 C368.84,411.32 308.23,421 256,438.19 C224.67,448.5 196.9181,463.2416 173.0381,477.6416 " fill="none" id="Backend (Spring Boot)-to-Datenbank (PostgreSQL)" style="stroke:#000000;stroke-width:2.0;"/><polygon fill="#000000" points="167.9,480.74,177.6727,479.5179,172.1818,478.158,173.5416,472.6671,167.9,480.74" style="stroke:#000000;stroke-width:2.0;"/></g><!--link Backend (Spring Boot) to Authentifizierungsservice--><g id="link_Backend (Spring Boot)_Authentifizierungsservice"><path d="M544.99,421.67 C566.63,439.16 591.7742,459.4977 613.3942,476.9777 " fill="none" id="Backend (Spring Boot)-to-Authentifizierungsservice" style="stroke:#000000;stroke-width:2.0;"/><polygon fill="#000000" points="618.06,480.75,613.5762,471.981,614.1718,477.6064,608.5464,478.202,618.06,480.75" style="stroke:#000000;stroke-width:2.0;"/></g><!--link Authentifizierungsservice to Discord API--><g id="link_Authentifizierungsservice_Discord API"><path d="M651.21,527.97 C655.23,545.46 659.4352,563.7126 663.4552,581.1926 " fill="none" id="Authentifizierungsservice-to-Discord API" style="stroke:#000000;stroke-width:2.0;"/><polygon fill="#000000" points="664.8,587.04,666.6811,577.3725,663.6794,582.1672,658.8846,579.1655,664.8,587.04" style="stroke:#000000;stroke-width:2.0;"/></g><!--link Backend (Spring Boot) to Plugin Management Service--><g id="link_Backend (Spring Boot)_Plugin Management Service"><path d="M489.23,421.67 C467.76,439.16 442.832,459.4807 421.372,476.9607 " fill="none" id="Backend (Spring Boot)-to-Plugin Management Service" style="stroke:#000000;stroke-width:2.0;"/><polygon fill="#000000" points="416.72,480.75,426.2242,478.1675,420.5967,477.5923,421.1719,471.9647,416.72,480.75" style="stroke:#000000;stroke-width:2.0;"/></g><!--link Plugin Management Service to Plugin Datenbank--><g id="link_Plugin Management Service_Plugin Datenbank"><path d="M389,527.97 C389,545.46 389,563.56 389,581.04 " fill="none" id="Plugin Management Service-to-Plugin Datenbank" style="stroke:#000000;stroke-width:2.0;"/><polygon fill="#000000" points="389,587.04,393,578.04,389,582.04,385,578.04,389,587.04" style="stroke:#000000;stroke-width:2.0;"/></g><!--link Discord Bot (JDA) to Backend (Spring Boot)--><g id="link_Discord Bot (JDA)_Backend (Spring Boot)"><path d="M839.47,480.76 C813.75,466.36 781.94,448.53 751.5,438.19 C707.8,423.34 663.8463,414.8908 621.2263,409.1508 " fill="none" id="Discord Bot (JDA)-to-Backend (Spring Boot)" style="stroke:#000000;stroke-width:2.0;"/><polygon fill="#000000" points="615.28,408.35,623.6656,413.5155,620.2353,409.0174,624.7334,405.5871,615.28,408.35" style="stroke:#000000;stroke-width:2.0;"/></g><!--link Backend (Spring Boot) to Discord Bot (JDA)--><g id="link_Backend (Spring Boot)_Discord Bot (JDA)"><path d="M615.35,404.67 C667.62,409.83 731.9,419.64 786.5,438.19 C817.05,448.57 844.0916,463.0251 864.4916,477.4551 " fill="none" id="Backend (Spring Boot)-to-Discord Bot (JDA)" style="stroke:#000000;stroke-width:2.0;"/><polygon fill="#000000" points="869.39,480.92,864.3523,472.457,865.308,478.0326,859.7324,478.9882,869.39,480.92" style="stroke:#000000;stroke-width:2.0;"/></g><!--link Discord Bot (JDA) to Discord API--><g id="link_Discord Bot (JDA)_Discord API"><path d="M840.7,527.97 C804.13,545.46 759.1626,566.9707 722.6226,584.4507 " fill="none" id="Discord Bot (JDA)-to-Discord API" style="stroke:#000000;stroke-width:2.0;"/><polygon fill="#000000" points="717.21,587.04,727.055,586.7645,721.7205,584.8823,723.6027,579.5477,717.21,587.04" style="stroke:#000000;stroke-width:2.0;"/></g><!--link Web-Oberfl?che to Plugin Verwaltung--><g id="link_Web-Oberfl&#228;che_Plugin Verwaltung"><path d="M595.86,147.07 C578.06,133.77 554.81,117.23 533,104.3 C525.56,99.89 523.93,97.73 515.5,95.8 C479.33,87.48 384.67,87.48 348.5,95.8 C312.96,103.97 278.38,128.19 255.84,146.85 " fill="none" id="Web-Oberfl&#228;che-Plugin Verwaltung" style="stroke:#000000;stroke-width:2.0;"/></g><!--link Plugin Verwaltung to API Gateway--><g id="link_Plugin Verwaltung_API Gateway"><path d="M292.27,194.07 C340.41,211.57 401.1007,233.621 449.2107,251.101 " fill="none" id="Plugin Verwaltung-to-API Gateway" style="stroke:#000000;stroke-width:2.0;"/><polygon fill="#000000" points="454.85,253.15,447.757,246.317,450.1506,251.4425,445.0251,253.8361,454.85,253.15" style="stroke:#000000;stroke-width:2.0;"/></g><!--SRC=[fLB1Ji904BttAqPEzD1VC6b53KOZfeaUI0zB6PODPPPCfw8O_yO_ySVSq9Qqj10IzxZpthmtR-PAbhX6s6JAaATIiGmHKY4xPC_Rg7IbDCBW9ZD84iHe10VmvO5xqpks94Xp68QaYqondq00qpUS1Sypv4Ns-vCkCTc3wvuG1DSd89tV4XjEnd2l1BVgC_6-6vvYv7Va8qzDTCcF77vlCjwm8GsHjU9NYlsraZToNMYcQ0N3YSr5CyOlZvSGmy95Ic8MPcUG2z9vxfoQj1xpTBqIDdbgUGvkb0lK9bcX3S6J8XVAslM5kALskjxY7wPjPrnv2SPkqPgL64k7g6kVaHKOFen2_x-1T_gTrsdbr3Hz-o78X31oDvitRkEOq7DmXpnUaRSg4xUTnElvwvxc7m00]--></g></svg>