<?xml version="1.0" encoding="UTF-8" standalone="no"?>
<svg
   viewBox="0 0 1967.3309 595.33179"
   version="1.1"
   id="svg4"
   sodipodi:docname="bothq-log.svg"
   inkscape:version="1.1.2 (0a00cf5339, 2022-02-04)"
   width="1967.3309"
   height="595.33179"
   inkscape:export-filename="/home/philipp/Dokumente/cloud.batelka.de/FIAE/mittelstufenprojekt/bothq-presentation/images/bothq-logo.png"
   inkscape:export-xdpi="200.06802"
   inkscape:export-ydpi="200.06802"
   xmlns:inkscape="http://www.inkscape.org/namespaces/inkscape"
   xmlns:sodipodi="http://sodipodi.sourceforge.net/DTD/sodipodi-0.dtd"
   xmlns:xlink="http://www.w3.org/1999/xlink"
   xmlns="http://www.w3.org/2000/svg"
   xmlns:svg="http://www.w3.org/2000/svg">
  <defs
     id="defs8">
    <rect
       id="SVGID_1_"
       x="78"
       y="31"
       width="172"
       height="172" />
  </defs>
  <sodipodi:namedview
     id="namedview6"
     pagecolor="#ffffff"
     bordercolor="#666666"
     borderopacity="1.0"
     inkscape:pageshadow="2"
     inkscape:pageopacity="0.0"
     inkscape:pagecheckerboard="true"
     showgrid="false"
     inkscape:zoom="0.45254834"
     inkscape:cx="1024.2"
     inkscape:cy="333.66601"
     inkscape:window-width="2560"
     inkscape:window-height="1371"
     inkscape:window-x="1920"
     inkscape:window-y="32"
     inkscape:window-maximized="1"
     inkscape:current-layer="svg4"
     fit-margin-top="0"
     fit-margin-left="0"
     fit-margin-right="0"
     fit-margin-bottom="0"
     showguides="true"
     inkscape:guide-bbox="true">
    <sodipodi:guide
       position="-327.64973,559.24329"
       orientation="0,-1"
       id="guide6724" />
    <sodipodi:guide
       position="919.2388,126.87355"
       orientation="0,-1"
       id="guide6726" />
  </sodipodi:namedview>
  <!--! Font Awesome Free 6.5.1 by @fontawesome - https://fontawesome.com License - https://fontawesome.com/license/free (Icons: CC BY 4.0, Fonts: SIL OFL 1.1, Code: MIT License) Copyright 2023 Fonticons, Inc. -->
  <text
     xml:space="preserve"
     style="font-style:normal;font-weight:normal;font-size:666.667px;line-height:1.25;font-family:sans-serif;letter-spacing:0px;fill:#008080;fill-opacity:1;stroke:none"
     x="-48.000023"
     y="469.99838"
     id="text1905"><tspan
       sodipodi:role="line"
       id="tspan1903"
       x="-48.000023"
       y="469.99838"
       style="font-style:normal;font-variant:normal;font-weight:900;font-stretch:normal;font-size:666.667px;font-family:'Source Sans Pro';-inkscape-font-specification:'Source Sans Pro Heavy';fill:#008080">B<tspan
   style="font-style:normal;font-variant:normal;font-weight:900;font-stretch:normal;font-family:'Source Sans Pro';-inkscape-font-specification:'Source Sans Pro Heavy';letter-spacing:22px"
   id="tspan39247">   </tspan>t<tspan
   style="font-style:normal;font-variant:normal;font-weight:900;font-stretch:normal;font-family:'Source Sans Pro';-inkscape-font-specification:'Source Sans Pro Heavy';letter-spacing:-40px;fill:#4d4d4d"
   id="tspan15541">HQ</tspan></tspan></text>
  <style
     type="text/css"
     id="style28896">
	.st0{clip-path:url(#SVGID_2_);}
	.st1{fill:#5865F2;}
	.st2{fill:#FFFFFF;}
	.st3{fill:none;}
</style>
  <g
     id="g28931"
     transform="matrix(2.382967,0,0,2.382967,113.50788,7.6201932)">
    <g
       id="g28910"
       transform="matrix(1.0674858,0,0,1.0674858,21.34716,-21.145482)">
      <defs
         id="defs28899">
        <rect
           id="rect28921"
           x="78"
           y="31"
           width="172"
           height="172" />
      </defs>
      <clipPath
         id="SVGID_2_">
        <use
           xlink:href="#SVGID_1_"
           style="overflow:visible"
           id="use28901"
           x="0"
           y="0"
           width="100%"
           height="100%" />
      </clipPath>
      <g
         class="st0"
         clip-path="url(#SVGID_2_)"
         id="g28908">
        <path
           id="path28904"
           style="fill:#008080;stroke-width:2.54378"
           class="st1"
           d="M 581.04883 36.087891 C 460.47349 36.087891 362.79297 133.77037 362.79297 254.3457 C 362.79297 374.66666 460.47349 472.34718 581.04883 472.60156 C 701.62416 472.60156 799.30664 374.92104 799.30664 254.3457 C 799.30664 133.77037 701.62416 36.087891 581.04883 36.087891 z M 541.875 147.75977 C 544.67316 152.59295 547.21645 157.68149 549.50586 163.02344 C 570.87364 159.71652 592.4955 159.71652 613.86328 163.02344 C 615.89831 158.19025 618.69645 152.33858 621.24023 147.75977 C 641.33612 151.06668 660.66866 157.17192 679.23828 165.56641 C 711.03557 212.37202 726.80726 265.28318 721.21094 326.33398 C 699.84316 342.35982 675.67854 354.31544 649.98633 362.20117 C 644.13563 354.31544 639.04709 346.17621 634.72266 337.52734 C 643.11714 334.4748 651.25732 330.65889 658.88867 326.08008 C 656.85365 324.55381 655.07409 323.02822 653.03906 321.50195 C 608.0141 342.86973 555.6109 342.86973 510.58594 321.50195 C 508.55091 323.02822 506.77135 324.55381 504.73633 326.08008 C 512.36768 330.65889 520.252 334.4748 528.64648 337.52734 C 524.32205 346.17621 519.23547 354.31544 513.38477 362.20117 C 487.69255 354.56982 463.78036 342.35982 442.1582 326.33398 C 437.32501 273.67767 447.24647 220.51361 483.87695 165.82227 C 502.19219 157.1734 521.77911 151.06668 541.875 147.75977 z M 534.75195 237.04688 C 520.76114 237.04688 509.56836 250.02003 509.56836 265.53711 C 509.56836 281.05419 520.76114 293.77344 534.75195 293.77344 C 548.99714 293.77344 559.93507 281.05419 560.18945 265.53711 C 560.18945 249.76565 548.99714 237.04688 534.75195 237.04688 z M 628.36328 237.04688 C 614.37247 237.04688 603.17969 250.02003 603.17969 265.53711 C 603.17969 281.05419 614.37247 293.77344 628.36328 293.77344 C 642.35409 293.77344 653.2925 281.30857 653.54688 265.53711 C 653.80125 249.76565 642.60847 237.04688 628.36328 237.04688 z "
           transform="matrix(0.39311523,0,0,0.39311523,-64.619282,16.813064)" />
      </g>
    </g>
    <rect
       x="64"
       y="17"
       class="st3"
       width="200"
       height="200"
       id="rect28912" />
  </g>
</svg>
